<svg width="1440" height="405" viewBox="0 0 1440 405" fill="none" xmlns="http://www.w3.org/2000/svg">
<g style="mix-blend-mode:color-dodge" opacity="0.2" filter="url(#filter0_f_28_400)">
<path d="M-62.7642 307.121C-169.87 256.508 34.4063 139.964 149.933 88.019C179.085 85.9805 240.694 90.2629 253.92 123.7C270.451 165.498 404.968 169.404 588.33 140.801C771.692 112.198 1136.09 80.9652 1192.03 141.971C1247.96 202.976 1111.82 241.047 913.625 300.165C715.426 359.282 689.603 290.8 489.907 341.098C290.212 391.396 71.1183 370.388 -62.7642 307.121Z" fill="#C3282F"/>
<path d="M1425.23 132.627C1604.85 162.18 1446.1 240.491 1432.25 299.751C1363.65 287.753 1208 269.924 1134.12 294.599C1041.76 325.442 953.692 389.759 785.545 411.008C617.398 432.257 461.97 324.814 485.305 294.256C508.641 263.698 594.558 215.276 584.365 261.174C574.172 307.071 775.38 304.628 984.756 249.881C1194.13 195.134 1245.61 103.074 1425.23 132.627Z" fill="#F36522"/>
<path d="M1245.32 100.116C1233.94 146.752 1057.93 198.854 867.651 248.542C845.165 245.381 798.012 231.067 789.291 199.101C778.39 159.145 638.651 123.556 432.398 122.764C226.146 121.972 196.682 110.063 266.216 31.136C335.75 -47.7911 477.814 -106.711 493.947 -90.1356C510.08 -73.5605 768.106 -23.3862 892.127 7.9483C1016.15 39.2828 1256.69 53.4804 1245.32 100.116Z" fill="#C48621"/>
</g>
<defs>
<filter id="filter0_f_28_400" x="-212.87" y="-212.943" width="2043.87" height="854.943" filterUnits="userSpaceOnUse" color-interpolation-filters="sRGB">
<feFlood flood-opacity="0" result="BackgroundImageFix"/>
<feBlend mode="normal" in="SourceGraphic" in2="BackgroundImageFix" result="shape"/>
<feGaussianBlur stdDeviation="60" result="effect1_foregroundBlur_28_400"/>
</filter>
</defs>
</svg>
