<svg xmlns="http://www.w3.org/2000/svg" width="30" height="30" viewBox="0 0 30 30" fill="none">
<path fill-rule="evenodd" clip-rule="evenodd" d="M26 7.28571C26 6.57564 25.4279 6 24.7222 6H4.27778C3.57206 6 3 6.57564 3 7.28571C3 7.99579 3.57206 8.57143 4.27778 8.57143H24.7222C25.4279 8.57143 26 7.99579 26 7.28571ZM26 15C26 14.2899 25.4279 13.7143 24.7222 13.7143H11.9444C11.2387 13.7143 10.6667 14.2899 10.6667 15C10.6667 15.7101 11.2387 16.2857 11.9444 16.2857H24.7222C25.4279 16.2857 26 15.7101 26 15ZM26 22.7143C26 22.0042 25.4279 21.4286 24.7222 21.4286H18.3333C17.6276 21.4286 17.0556 22.0042 17.0556 22.7143C17.0556 23.4244 17.6276 24 18.3333 24H24.7222C25.4279 24 26 23.4244 26 22.7143Z" fill="#0B343A"/>
</svg>