<svg width="24" height="24" viewBox="0 0 24 24" fill="none" xmlns="http://www.w3.org/2000/svg">
<path d="M14.0306 11.4693C14.1003 11.539 14.1556 11.6217 14.1933 11.7127C14.2311 11.8038 14.2505 11.9014 14.2505 11.9999C14.2505 12.0985 14.2311 12.1961 14.1933 12.2871C14.1556 12.3782 14.1003 12.4609 14.0306 12.5306L6.53055 20.0306C6.38982 20.1713 6.19895 20.2503 5.99993 20.2503C5.80091 20.2503 5.61003 20.1713 5.4693 20.0306C5.32857 19.8898 5.24951 19.699 5.24951 19.4999C5.24951 19.3009 5.32857 19.11 5.4693 18.9693L12.4396 11.9999L5.4693 5.03055C5.32857 4.88982 5.24951 4.69895 5.24951 4.49993C5.24951 4.30091 5.32857 4.11003 5.4693 3.9693C5.61003 3.82857 5.80091 3.74951 5.99993 3.74951C6.19895 3.74951 6.38982 3.82857 6.53055 3.9693L14.0306 11.4693ZM17.2499 3.74993C17.051 3.74993 16.8603 3.82895 16.7196 3.9696C16.5789 4.11025 16.4999 4.30102 16.4999 4.49993V19.4999C16.4999 19.6988 16.5789 19.8896 16.7196 20.0303C16.8603 20.1709 17.051 20.2499 17.2499 20.2499C17.4488 20.2499 17.6396 20.1709 17.7803 20.0303C17.9209 19.8896 17.9999 19.6988 17.9999 19.4999V4.49993C17.9999 4.30102 17.9209 4.11025 17.7803 3.9696C17.6396 3.82895 17.4488 3.74993 17.2499 3.74993Z" fill="#F36522"/>
</svg>
