<svg width="324" height="146" viewBox="0 0 324 146" fill="none" xmlns="http://www.w3.org/2000/svg">
<mask id="path-1-inside-1_1_98" fill="white">
<path d="M0.333374 7C0.333374 3.13401 3.46738 0 7.33337 0H316.667C320.533 0 323.667 3.13401 323.667 7V139C323.667 142.866 320.533 146 316.667 146H7.33337C3.46738 146 0.333374 142.866 0.333374 139V7Z"/>
</mask>
<path d="M0.333374 0H323.667H0.333374ZM324.167 139C324.167 143.142 320.809 146.5 316.667 146.5H7.33337C3.19124 146.5 -0.166626 143.142 -0.166626 139H0.833374C0.833374 142.59 3.74352 145.5 7.33337 145.5H316.667C320.257 145.5 323.167 142.59 323.167 139H324.167ZM7.33337 146.5C3.19124 146.5 -0.166626 143.142 -0.166626 139V7.5C-0.166626 3.35786 3.19124 0 7.33337 0C3.74352 0 0.833374 3.13401 0.833374 7V139C0.833374 142.59 3.74352 145.5 7.33337 145.5V146.5ZM316.667 0C320.809 0 324.167 3.35786 324.167 7.5V139C324.167 143.142 320.809 146.5 316.667 146.5V145.5C320.257 145.5 323.167 142.59 323.167 139V7C323.167 3.13401 320.257 0 316.667 0Z" fill="url(#paint0_linear_1_98)" mask="url(#path-1-inside-1_1_98)"/>
<defs>
<linearGradient id="paint0_linear_1_98" x1="162" y1="-8.61105e-07" x2="154.77" y2="145.641" gradientUnits="userSpaceOnUse">
<stop stop-color="white" stop-opacity="0"/>
<stop offset="1" stop-color="#F36522"/>
</linearGradient>
</defs>
</svg>
