<svg width="18" height="19" viewBox="0 0 18 19" fill="none" xmlns="http://www.w3.org/2000/svg">
<path d="M5.12123 0.659912C2.31868 0.659912 0.0383301 2.9742 0.0383301 5.8175V13.1837C0.0383301 16.0266 2.32002 18.3399 5.12328 18.3399H12.3857C15.1886 18.3399 17.4693 16.0256 17.4693 13.1823V5.81543C17.4693 2.97284 15.1876 0.659912 12.3844 0.659912H5.12123ZM13.9831 3.48871C14.368 3.48871 14.6804 3.80554 14.6804 4.19591C14.6804 4.58629 14.368 4.90311 13.9831 4.90311C13.5982 4.90311 13.2859 4.58629 13.2859 4.19591C13.2859 3.80554 13.5982 3.48871 13.9831 3.48871ZM8.75382 4.90311C11.2534 4.90311 13.2859 6.9646 13.2859 9.49991C13.2859 12.0352 11.2531 14.0967 8.75382 14.0967C6.25422 14.0967 4.22177 12.0349 4.22177 9.49991C4.22177 6.96495 6.25422 4.90311 8.75382 4.90311ZM8.75382 6.31751C7.02083 6.31751 5.61625 7.74217 5.61625 9.49991C5.61625 11.2577 7.02083 12.6823 8.75382 12.6823C10.4868 12.6823 11.8914 11.2577 11.8914 9.49991C11.8914 7.74217 10.4868 6.31751 8.75382 6.31751Z" fill="white"/>
</svg>
