<svg width="18" height="19" viewBox="0 0 18 19" fill="none" xmlns="http://www.w3.org/2000/svg">
<path fill-rule="evenodd" clip-rule="evenodd" d="M0.531738 2.137C0.531738 1.74525 0.685168 1.36955 0.958273 1.09254C1.23138 0.815535 1.60179 0.659914 1.98802 0.659914H16.5049C16.6963 0.659597 16.8858 0.697575 17.0628 0.771673C17.2397 0.845771 17.4004 0.954535 17.5359 1.09174C17.6713 1.22894 17.7787 1.39188 17.8519 1.57125C17.9252 1.75061 17.9628 1.94286 17.9627 2.137V16.8612C17.9629 17.0554 17.9254 17.2477 17.8522 17.4272C17.7791 17.6066 17.6718 17.7697 17.5365 17.907C17.4011 18.0443 17.2404 18.1533 17.0636 18.2276C16.8867 18.3018 16.6971 18.34 16.5057 18.3399H1.98802C1.79671 18.3399 1.60728 18.3017 1.43054 18.2274C1.25381 18.1531 1.09323 18.0442 0.957993 17.907C0.822754 17.7698 0.715502 17.6068 0.642364 17.4275C0.569225 17.2482 0.531634 17.0561 0.531738 16.862V2.137ZM7.43124 7.40082H9.79155V8.60306C10.1322 7.91193 11.0038 7.28991 12.3135 7.28991C14.8244 7.28991 15.4194 8.66654 15.4194 11.1924V15.8711H12.8784V11.7678C12.8784 10.3293 12.5377 9.51759 11.6725 9.51759C10.4722 9.51759 9.97299 10.3928 9.97299 11.7678V15.8711H7.43124V7.40082ZM3.07349 15.761H5.61525V7.28991H3.07349V15.7602V15.761ZM5.97892 4.52701C5.98371 4.74775 5.94499 4.96723 5.86502 5.17258C5.78505 5.37794 5.66544 5.56502 5.51322 5.72285C5.361 5.88068 5.17923 6.00608 4.97858 6.0917C4.77794 6.17731 4.56245 6.22141 4.34477 6.22141C4.12709 6.22141 3.9116 6.17731 3.71095 6.0917C3.5103 6.00608 3.32853 5.88068 3.17631 5.72285C3.02409 5.56502 2.90449 5.37794 2.82452 5.17258C2.74454 4.96723 2.70582 4.74775 2.71061 4.52701C2.72002 4.09373 2.89632 3.68142 3.20176 3.37836C3.5072 3.07531 3.91749 2.90561 4.34477 2.90561C4.77204 2.90561 5.18234 3.07531 5.48778 3.37836C5.79321 3.68142 5.96951 4.09373 5.97892 4.52701Z" fill="white"/>
</svg>
