<svg width="18" height="15" viewBox="0 0 18 15" fill="none" xmlns="http://www.w3.org/2000/svg">
<path d="M17.362 2.39096C16.7673 2.62482 16.1355 2.78672 15.4665 2.85868C16.1727 2.46291 16.7116 1.83328 17.0089 1.09572C17.0275 1.04175 16.9717 1.00577 16.9346 1.02376C16.2656 1.38355 15.5408 1.6354 14.7789 1.77932C14.1285 1.11371 13.1808 0.699951 12.1587 0.699951C10.1703 0.699951 8.55359 2.22905 8.55359 4.13593C8.55359 4.40577 8.59075 4.65762 8.6465 4.90947C5.65462 4.76556 3.01582 3.41635 1.25042 1.34757C1.25042 1.32958 1.23183 1.32958 1.21325 1.34757C0.915921 1.85127 0.748672 2.42693 0.748672 3.05656C0.748672 4.22588 1.36191 5.25127 2.29107 5.86291C2.30965 5.8809 2.29107 5.89889 2.27249 5.89889C1.715 5.86291 1.21325 5.719 0.748672 5.48514C0.730089 5.48514 0.711511 5.48514 0.730094 5.50312C0.730094 5.64704 0.785841 6.33064 0.971672 6.76238C1.41767 7.84175 2.40258 8.65127 3.61048 8.88514C3.31315 8.95709 2.97865 9.01106 2.66273 9.01106C2.43973 9.01106 2.23532 8.99307 2.01232 8.95709C1.99374 8.95709 1.99374 8.97508 1.99374 8.97508C2.45832 10.3063 3.75914 11.2777 5.28296 11.3317C5.30154 11.3317 5.32012 11.3497 5.30154 11.3677C4.07505 12.2671 2.55124 12.8068 0.878757 12.8068C0.581427 12.8068 0.302673 12.7888 0.0239258 12.7529C1.62208 13.7243 3.51756 14.3 5.54312 14.3C8.34917 14.3 10.6163 13.3645 12.2888 11.9433C13.9799 10.5042 15.0948 8.57932 15.5408 6.60048C15.7081 5.91688 15.7824 5.2153 15.7824 4.5317C15.7824 4.38778 15.7824 4.24387 15.7638 4.08196C16.4142 3.63223 16.9903 3.07455 17.4549 2.46291C17.4549 2.42694 17.4177 2.37297 17.362 2.39096Z" fill="white"/>
</svg>
