<svg width="18" height="18" viewBox="0 0 18 18" fill="none" xmlns="http://www.w3.org/2000/svg">
<g clip-path="url(#clip0_65_139)">
<path d="M9.44071 14.5841C9.16931 14.4197 8.829 14.4197 8.55761 14.5842L4.39532 17.107C3.75017 17.498 2.95263 16.9195 3.12406 16.1848L4.22755 11.4558C4.29924 11.1486 4.19529 10.8269 3.95739 10.6197L0.293637 7.42915C-0.273874 6.93493 0.031211 6.00144 0.781053 5.93777L5.60934 5.52775C5.92375 5.50105 6.19766 5.30276 6.3212 5.01241L8.21605 0.55893C8.51015 -0.132274 9.48985 -0.132273 9.78395 0.558931L11.6788 5.01241C11.8023 5.30276 12.0762 5.50106 12.3907 5.52775L17.2189 5.93777C17.9688 6.00144 18.2739 6.93493 17.7064 7.42915L14.0426 10.6197C13.8047 10.8269 13.7008 11.1486 13.7725 11.4558L14.876 16.1851C15.0474 16.9197 14.25 17.4983 13.6048 17.1074L9.44071 14.5841Z" fill="#E0E8F1"/>
</g>
<defs>
<clipPath id="clip0_65_139">
<rect width="18" height="17.25" fill="white" transform="translate(0 0.375)"/>
</clipPath>
</defs>
</svg>
